<mxfile host="app.diagrams.net" modified="2021-08-29T13:17:53.839Z" agent="5.0 (Macintosh; Intel Mac OS X 10_14_3) AppleWebKit/537.36 (KHTML, like Gecko) Chrome/92.0.4515.159 Safari/537.36" etag="aZpo3PLGPWf4sx79PGyq" version="15.0.2" type="github">
  <diagram id="3228e29e-7158-1315-38df-8450db1d8a1d" name="Page-1">
    <mxGraphModel dx="1577" dy="187" grid="0" gridSize="10" guides="1" tooltips="1" connect="1" arrows="1" fold="1" page="1" pageScale="1" pageWidth="900" pageHeight="620" background="#EFF1F3" math="0" shadow="0">
      <root>
        <mxCell id="0" />
        <mxCell id="1" parent="0" />
        <mxCell id="_KJd5dzx4qh3lxpyMWcO-2" value="" style="fontColor=#0066CC;verticalAlign=top;verticalLabelPosition=bottom;labelPosition=center;align=center;html=1;outlineConnect=0;gradientColor=none;gradientDirection=north;strokeWidth=2;shape=mxgraph.networks.pc;fillColor=#67AB9F;fontSize=30;" parent="1" vertex="1">
          <mxGeometry x="146.18" y="712" width="74.65" height="54" as="geometry" />
        </mxCell>
        <mxCell id="T-5VQnCJckOgUX1Wp16H-28" value="客户端" style="text;html=1;strokeColor=none;fillColor=none;align=center;verticalAlign=middle;whiteSpace=wrap;rounded=0;fontSize=22;" parent="1" vertex="1">
          <mxGeometry x="139.54999999999998" y="792" width="87.91" height="20" as="geometry" />
        </mxCell>
        <mxCell id="aH1-eks404bDhsACtXEq-2" value="" style="fontColor=#0066CC;verticalAlign=top;verticalLabelPosition=bottom;labelPosition=center;align=center;html=1;outlineConnect=0;gradientColor=none;gradientDirection=north;strokeWidth=2;shape=mxgraph.networks.server;fillColor=#4A919B;" parent="1" vertex="1">
          <mxGeometry x="634.18" y="714" width="51.5" height="64" as="geometry" />
        </mxCell>
        <mxCell id="aH1-eks404bDhsACtXEq-3" value="服务端" style="text;html=1;strokeColor=none;fillColor=none;align=center;verticalAlign=middle;whiteSpace=wrap;rounded=0;fontSize=22;" parent="1" vertex="1">
          <mxGeometry x="573.1800000000001" y="792" width="179" height="20" as="geometry" />
        </mxCell>
        <mxCell id="aH1-eks404bDhsACtXEq-4" value="&lt;font style=&quot;font-size: 30px&quot;&gt;RST与502错误码&lt;/font&gt;" style="text;html=1;strokeColor=none;fillColor=none;align=center;verticalAlign=middle;whiteSpace=wrap;rounded=0;" parent="1" vertex="1">
          <mxGeometry x="232.91" y="659" width="395" height="28" as="geometry" />
        </mxCell>
        <mxCell id="aH1-eks404bDhsACtXEq-7" value="" style="endArrow=none;html=1;strokeWidth=5;" parent="1" edge="1">
          <mxGeometry width="50" height="50" relative="1" as="geometry">
            <mxPoint x="203.91" y="1197" as="sourcePoint" />
            <mxPoint x="203.91" y="854" as="targetPoint" />
          </mxGeometry>
        </mxCell>
        <mxCell id="aH1-eks404bDhsACtXEq-10" value="" style="endArrow=classic;html=1;strokeWidth=5;fontSize=20;" parent="1" edge="1">
          <mxGeometry width="50" height="50" relative="1" as="geometry">
            <mxPoint x="456.91" y="887" as="sourcePoint" />
            <mxPoint x="618.91" y="887" as="targetPoint" />
          </mxGeometry>
        </mxCell>
        <mxCell id="aH1-eks404bDhsACtXEq-12" value="" style="endArrow=none;html=1;strokeWidth=5;startArrow=classic;startFill=1;endFill=0;fontColor=#4A919B;" parent="1" edge="1">
          <mxGeometry width="50" height="50" relative="1" as="geometry">
            <mxPoint x="449.91" y="946" as="sourcePoint" />
            <mxPoint x="615.91" y="946" as="targetPoint" />
          </mxGeometry>
        </mxCell>
        <mxCell id="aH1-eks404bDhsACtXEq-17" value="&lt;span style=&quot;font-family: &amp;quot;open sans&amp;quot; , &amp;quot;clear sans&amp;quot; , &amp;quot;helvetica neue&amp;quot; , &amp;quot;helvetica&amp;quot; , &amp;quot;arial&amp;quot; , sans-serif&quot;&gt;&lt;font style=&quot;font-size: 12px&quot;&gt;ESTABLISHED&lt;/font&gt;&lt;/span&gt;" style="rounded=1;whiteSpace=wrap;html=1;dashed=1;strokeWidth=3;strokeColor=none;fillColor=#535E80;fontColor=#FFFFFF;" parent="1" vertex="1">
          <mxGeometry x="654.41" y="849" width="89.5" height="132" as="geometry" />
        </mxCell>
        <mxCell id="YXoqQ_mGJv7HDvLP6CB5-1" value="" style="endArrow=none;html=1;strokeWidth=5;" parent="1" edge="1">
          <mxGeometry width="50" height="50" relative="1" as="geometry">
            <mxPoint x="636.91" y="1197" as="sourcePoint" />
            <mxPoint x="636.4100000000001" y="855" as="targetPoint" />
          </mxGeometry>
        </mxCell>
        <mxCell id="CZwPZS3a3ZRwMsVz8uld-6" value="&lt;font color=&quot;#ffffff&quot;&gt;CLOSED&lt;/font&gt;" style="rounded=1;whiteSpace=wrap;html=1;strokeWidth=3;strokeColor=none;fillColor=#808080;" parent="1" vertex="1">
          <mxGeometry x="655.41" y="994" width="89" height="201" as="geometry" />
        </mxCell>
        <mxCell id="620c4s5pLBTuJ2dwkKwi-3" value="&lt;span style=&quot;font-family: &amp;#34;open sans&amp;#34; , &amp;#34;clear sans&amp;#34; , &amp;#34;helvetica neue&amp;#34; , &amp;#34;helvetica&amp;#34; , &amp;#34;arial&amp;#34; , sans-serif&quot;&gt;&lt;font style=&quot;font-size: 12px&quot;&gt;ESTABLISHED&lt;br&gt;&lt;/font&gt;&lt;/span&gt;" style="rounded=1;whiteSpace=wrap;html=1;dashed=1;strokeWidth=3;fillColor=#535E80;strokeColor=none;fontColor=#FFFFFF;" parent="1" vertex="1">
          <mxGeometry x="94" y="857" width="89" height="344" as="geometry" />
        </mxCell>
        <mxCell id="RZoSx3gHirty8Vm16f_1-15" value="" style="fontColor=#0066CC;verticalAlign=top;verticalLabelPosition=bottom;labelPosition=center;align=center;html=1;outlineConnect=0;gradientColor=none;gradientDirection=north;strokeWidth=2;shape=mxgraph.networks.server;fillColor=#4A919B;" parent="1" vertex="1">
          <mxGeometry x="771.91" y="951" width="51.5" height="64" as="geometry" />
        </mxCell>
        <mxCell id="RZoSx3gHirty8Vm16f_1-16" value="" style="html=1;verticalLabelPosition=bottom;align=center;labelBackgroundColor=#ffffff;verticalAlign=top;strokeWidth=2;shadow=0;dashed=0;shape=mxgraph.ios7.icons.flash;strokeColor=none;fillColor=#EA6B66;" parent="1" vertex="1">
          <mxGeometry x="768.16" y="951" width="59" height="70" as="geometry" />
        </mxCell>
        <mxCell id="RZoSx3gHirty8Vm16f_1-17" value="&lt;font style=&quot;font-size: 20px&quot;&gt;1.程序崩溃&lt;/font&gt;" style="text;html=1;strokeColor=none;fillColor=none;align=center;verticalAlign=middle;whiteSpace=wrap;rounded=0;" parent="1" vertex="1">
          <mxGeometry x="752.18" y="1023" width="122.73" height="33" as="geometry" />
        </mxCell>
        <mxCell id="RZoSx3gHirty8Vm16f_1-20" value="" style="endArrow=none;html=1;strokeWidth=5;startArrow=classic;startFill=1;endFill=0;fontColor=#4A919B;strokeColor=#EA6B66;" parent="1" edge="1">
          <mxGeometry width="50" height="50" relative="1" as="geometry">
            <mxPoint x="448.41" y="1118" as="sourcePoint" />
            <mxPoint x="615.41" y="1118" as="targetPoint" />
          </mxGeometry>
        </mxCell>
        <mxCell id="RZoSx3gHirty8Vm16f_1-21" value="RST" style="text;html=1;strokeColor=none;fillColor=none;align=center;verticalAlign=middle;whiteSpace=wrap;rounded=0;fontSize=20;rotation=0;fontColor=#EA6B66;" parent="1" vertex="1">
          <mxGeometry x="486.18" y="1081" width="87" height="32" as="geometry" />
        </mxCell>
        <mxCell id="RZoSx3gHirty8Vm16f_1-23" value="&lt;font style=&quot;font-size: 20px&quot;&gt;2.nginx收到&lt;br&gt;RST关闭连接&lt;br&gt;&lt;/font&gt;" style="text;html=1;strokeColor=none;fillColor=none;align=center;verticalAlign=middle;whiteSpace=wrap;rounded=0;" parent="1" vertex="1">
          <mxGeometry x="417.91" y="1144" width="163" height="51" as="geometry" />
        </mxCell>
        <mxCell id="GUUlcHjoklqDYzLI_npm-1" value="" style="endArrow=none;html=1;strokeWidth=5;" edge="1" parent="1">
          <mxGeometry width="50" height="50" relative="1" as="geometry">
            <mxPoint x="426.91" y="1201" as="sourcePoint" />
            <mxPoint x="426.41" y="858" as="targetPoint" />
          </mxGeometry>
        </mxCell>
        <mxCell id="GUUlcHjoklqDYzLI_npm-2" value="" style="shape=image;html=1;verticalAlign=top;verticalLabelPosition=bottom;labelBackgroundColor=#ffffff;imageAspect=0;aspect=fixed;image=https://cdn4.iconfinder.com/data/icons/logos-brands-5/24/nginx-128.png" vertex="1" parent="1">
          <mxGeometry x="389.91" y="709" width="74" height="74" as="geometry" />
        </mxCell>
        <mxCell id="GUUlcHjoklqDYzLI_npm-3" value="nginx" style="text;html=1;strokeColor=none;fillColor=none;align=center;verticalAlign=middle;whiteSpace=wrap;rounded=0;fontSize=22;" vertex="1" parent="1">
          <mxGeometry x="389.91" y="792" width="87.91" height="20" as="geometry" />
        </mxCell>
        <mxCell id="GUUlcHjoklqDYzLI_npm-4" value="&lt;span style=&quot;font-size: 20px&quot;&gt;request&lt;/span&gt;" style="text;html=1;strokeColor=none;fillColor=none;align=center;verticalAlign=middle;whiteSpace=wrap;rounded=0;" vertex="1" parent="1">
          <mxGeometry x="459.91" y="858" width="132" height="20" as="geometry" />
        </mxCell>
        <mxCell id="GUUlcHjoklqDYzLI_npm-5" value="" style="endArrow=classic;html=1;strokeWidth=5;fontSize=20;" edge="1" parent="1">
          <mxGeometry width="50" height="50" relative="1" as="geometry">
            <mxPoint x="230.91" y="888" as="sourcePoint" />
            <mxPoint x="392.91" y="888" as="targetPoint" />
          </mxGeometry>
        </mxCell>
        <mxCell id="GUUlcHjoklqDYzLI_npm-6" value="&lt;span style=&quot;font-size: 20px&quot;&gt;request&lt;/span&gt;" style="text;html=1;strokeColor=none;fillColor=none;align=center;verticalAlign=middle;whiteSpace=wrap;rounded=0;" vertex="1" parent="1">
          <mxGeometry x="236.91" y="858" width="132" height="20" as="geometry" />
        </mxCell>
        <mxCell id="GUUlcHjoklqDYzLI_npm-7" value="&lt;span style=&quot;font-size: 20px&quot;&gt;response&lt;/span&gt;" style="text;html=1;strokeColor=none;fillColor=none;align=center;verticalAlign=middle;whiteSpace=wrap;rounded=0;" vertex="1" parent="1">
          <mxGeometry x="457.91" y="921" width="132" height="20" as="geometry" />
        </mxCell>
        <mxCell id="GUUlcHjoklqDYzLI_npm-8" value="" style="endArrow=none;html=1;strokeWidth=5;startArrow=classic;startFill=1;endFill=0;fontColor=#4A919B;" edge="1" parent="1">
          <mxGeometry width="50" height="50" relative="1" as="geometry">
            <mxPoint x="227.46" y="946" as="sourcePoint" />
            <mxPoint x="393.46000000000004" y="946" as="targetPoint" />
          </mxGeometry>
        </mxCell>
        <mxCell id="GUUlcHjoklqDYzLI_npm-9" value="&lt;span style=&quot;font-size: 20px&quot;&gt;response&lt;/span&gt;" style="text;html=1;strokeColor=none;fillColor=none;align=center;verticalAlign=middle;whiteSpace=wrap;rounded=0;" vertex="1" parent="1">
          <mxGeometry x="235.46" y="921" width="132" height="20" as="geometry" />
        </mxCell>
        <mxCell id="GUUlcHjoklqDYzLI_npm-10" value="" style="endArrow=classic;html=1;strokeWidth=5;fontSize=20;" edge="1" parent="1">
          <mxGeometry width="50" height="50" relative="1" as="geometry">
            <mxPoint x="230.91" y="1045" as="sourcePoint" />
            <mxPoint x="392.91" y="1045" as="targetPoint" />
          </mxGeometry>
        </mxCell>
        <mxCell id="GUUlcHjoklqDYzLI_npm-11" value="&lt;span style=&quot;font-size: 20px&quot;&gt;request&lt;/span&gt;" style="text;html=1;strokeColor=none;fillColor=none;align=center;verticalAlign=middle;whiteSpace=wrap;rounded=0;" vertex="1" parent="1">
          <mxGeometry x="236.91" y="1015" width="132" height="20" as="geometry" />
        </mxCell>
        <mxCell id="GUUlcHjoklqDYzLI_npm-12" value="" style="endArrow=classic;html=1;strokeWidth=5;fontSize=20;" edge="1" parent="1">
          <mxGeometry width="50" height="50" relative="1" as="geometry">
            <mxPoint x="450.91" y="1044" as="sourcePoint" />
            <mxPoint x="612.91" y="1044" as="targetPoint" />
          </mxGeometry>
        </mxCell>
        <mxCell id="GUUlcHjoklqDYzLI_npm-13" value="&lt;span style=&quot;font-size: 20px&quot;&gt;request&lt;/span&gt;" style="text;html=1;strokeColor=none;fillColor=none;align=center;verticalAlign=middle;whiteSpace=wrap;rounded=0;" vertex="1" parent="1">
          <mxGeometry x="459.91" y="1015" width="132" height="20" as="geometry" />
        </mxCell>
        <mxCell id="GUUlcHjoklqDYzLI_npm-14" value="" style="endArrow=none;dashed=1;html=1;strokeColor=#000000;strokeWidth=2;" edge="1" parent="1">
          <mxGeometry width="50" height="50" relative="1" as="geometry">
            <mxPoint x="200.91" y="988" as="sourcePoint" />
            <mxPoint x="660.91" y="988" as="targetPoint" />
          </mxGeometry>
        </mxCell>
        <mxCell id="GUUlcHjoklqDYzLI_npm-15" value="" style="endArrow=none;html=1;strokeWidth=5;startArrow=classic;startFill=1;endFill=0;fontColor=#4A919B;strokeColor=#EA6B66;" edge="1" parent="1">
          <mxGeometry width="50" height="50" relative="1" as="geometry">
            <mxPoint x="227.46" y="1119" as="sourcePoint" />
            <mxPoint x="394.46000000000004" y="1119" as="targetPoint" />
          </mxGeometry>
        </mxCell>
        <mxCell id="GUUlcHjoklqDYzLI_npm-16" value="nginx返回502" style="text;html=1;strokeColor=none;fillColor=none;align=center;verticalAlign=middle;whiteSpace=wrap;rounded=0;fontSize=20;rotation=0;fontColor=#EA6B66;" vertex="1" parent="1">
          <mxGeometry x="251.91" y="1081" width="130" height="32" as="geometry" />
        </mxCell>
      </root>
    </mxGraphModel>
  </diagram>
</mxfile>
